<svg width="67" height="67" viewBox="0 0 67 67" fill="none" xmlns="http://www.w3.org/2000/svg">
<path d="M1 32.5C1 18.9053 1 12.108 4.484 7.35643C5.56974 5.87566 6.87566 4.56974 8.35643 3.484C13.108 0 19.9053 0 33.5 0C47.0947 0 53.892 0 58.6436 3.484C60.1243 4.56974 61.4303 5.87566 62.516 7.35643C66 12.108 66 18.9053 66 32.5V34.5C66 48.0947 66 54.892 62.516 59.6436C61.4303 61.1243 60.1243 62.4303 58.6436 63.516C53.892 67 47.0947 67 33.5 67C19.9053 67 13.108 67 8.35643 63.516C6.87566 62.4303 5.56974 61.1243 4.484 59.6436C1 54.892 1 48.0947 1 34.5V32.5Z" fill="#7A73E1"/>
<path d="M43.9338 37.3481L33.3334 8.84399L22.3796 14.3163L29.6233 35.8524L20.9663 24.3783L14.606 32.4984L29.6233 43.7961L22.3796 50.5041L37.3969 55.9764L43.9338 58.2712L40.2124 47.4219L38.6084 43.0718L43.9338 37.3481Z" fill="#D4D1FF"/>
<path d="M52.4141 46.2674L43.9338 37.3481L38.6084 43.0718L40.2124 47.4219L43.9338 58.2712L49.4211 50.5041L52.4141 46.2674Z" fill="#CECBFF"/>
<path d="M52.4141 46.2674L43.9338 37.3481M52.4141 46.2674L43.9338 58.2712M52.4141 46.2674L49.4211 50.5041L43.9338 58.2712M43.9338 37.3481L33.3334 8.84399L22.3796 14.3163L29.6233 35.8524L20.9663 24.3783L14.606 32.4984L29.6233 43.7961L22.3796 50.5041L37.3969 55.9764L43.9338 58.2712M43.9338 37.3481L38.6084 43.0718L40.2124 47.4219L43.9338 58.2712" stroke="#35332F" stroke-width="5" stroke-linecap="round" stroke-linejoin="round"/>
</svg>
